<?xml version="1.0" encoding="UTF-8"?>
<svg version="1.1" xmlns="http://www.w3.org/2000/svg" width="512" height="512">
<path d="M0 0 C1.05960938 0.14824219 2.11921875 0.29648438 3.2109375 0.44921875 C13.32033417 3.00548496 19.36459268 9.50153976 26.45703125 16.69042969 C27.62975024 17.86427829 28.80335335 19.03724419 29.97776794 20.20939636 C33.14943353 23.37991832 36.30864841 26.56258594 39.4657135 29.74763775 C42.77235746 33.07935381 46.09039723 36.39968171 49.40722656 39.72125244 C55.68010498 46.00654355 61.94272045 52.30195765 68.20168114 58.60110497 C75.3304377 65.77463229 82.47060937 72.93675132 89.61174583 80.09795141 C104.29553579 94.82350703 118.9649862 109.56327638 133.625 124.3125 C137.33595035 122.76079489 139.67652151 120.49793742 142.49395752 117.65713501 C142.96950632 117.1804728 143.44505512 116.70381058 143.93501449 116.21270406 C145.52559669 114.61605522 147.10890488 113.01238381 148.69238281 111.40869141 C149.83222682 110.26173388 150.97254331 109.11524576 152.11329651 107.9691925 C154.56873855 105.5006509 157.02113512 103.02913648 159.47132111 100.55537796 C163.34887326 96.64122487 167.23512324 92.73578723 171.12298584 88.83187866 C182.17723484 77.72934123 193.2197436 66.61517091 204.25341797 55.4921875 C210.34757756 49.34885508 216.44896297 43.21279084 222.55811763 37.08436906 C226.42118263 33.20824792 230.27507261 29.32330132 234.12234449 25.43150735 C236.52328009 23.00703474 238.93261111 20.59104143 241.34434319 18.17731285 C242.45720084 17.06017668 243.56663425 15.93961673 244.67226601 14.8153286 C253.98358496 5.35308499 261.90708111 -0.19700924 275.625 -0.6875 C282.3837263 0.15433424 288.34010955 1.88794055 293.625 6.3125 C294.20894531 6.79460937 294.79289062 7.27671875 295.39453125 7.7734375 C302.15823516 13.83941195 305.15269959 21.67167349 305.71875 30.671875 C305.17155782 46.08445461 295.61829955 54.61780915 285.29541016 64.86914062 C284.15125253 66.0127332 283.00753692 67.15676814 281.86422729 68.3012085 C278.77823269 71.38777396 275.68613656 74.46815924 272.59286165 77.54742622 C269.35415647 80.77357927 266.12116171 84.00544479 262.88754272 87.23669434 C256.77187043 93.34616499 250.6511205 99.45052199 244.52850473 105.55303335 C237.55476223 112.50437578 230.58673754 119.46143779 223.61917424 126.41897297 C209.29411125 140.7231638 194.96192539 155.02019939 180.625 169.3125 C182.17670511 173.02345035 184.43956258 175.36402151 187.28036499 178.18145752 C187.7570272 178.65700632 188.23368942 179.13255512 188.72479594 179.62251449 C190.32144478 181.21309669 191.92511619 182.79640488 193.52880859 184.37988281 C194.67576612 185.51972682 195.82225424 186.66004331 196.9683075 187.80079651 C199.4368491 190.25623855 201.90836352 192.70863512 204.38212204 195.15882111 C208.29627513 199.03637326 212.20171277 202.92262324 216.10562134 206.81048584 C227.20815877 217.86473484 238.32232909 228.9072436 249.4453125 239.94091797 C255.58864492 246.03507756 261.72470916 252.13646297 267.85313094 258.24561763 C271.72925208 262.10868263 275.61419868 265.96257261 279.50599265 269.80984449 C281.93046526 272.21078009 284.34645857 274.62011111 286.76018715 277.03184319 C287.87732332 278.14470084 288.99788327 279.25413425 290.1221714 280.35976601 C298.78102441 288.8805086 305.4774721 297.06750729 305.66015625 309.75390625 C305.01112872 319.86923769 301.56604437 327.48687522 294.1171875 334.3984375 C287.21731829 339.69771009 278.74903206 341.93350169 270.12109375 341.05859375 C258.04252873 339.01169189 251.10480993 332.35944574 242.79296875 323.93457031 C241.62024976 322.76072171 240.44664665 321.58775581 239.27223206 320.41560364 C236.10056647 317.24508168 232.94135159 314.06241406 229.7842865 310.87736225 C226.47764254 307.54564619 223.15960277 304.22531829 219.84277344 300.90374756 C213.56989502 294.61845645 207.30727955 288.32304235 201.04831886 282.02389503 C193.9195623 274.85036771 186.77939063 267.68824868 179.63825417 260.52704859 C164.95446421 245.80149297 150.2850138 231.06172362 135.625 216.3125 C131.91404965 217.86420511 129.57347849 220.12706258 126.75604248 222.96786499 C126.28049368 223.4445272 125.80494488 223.92118942 125.31498551 224.41229594 C123.72440331 226.00894478 122.14109512 227.61261619 120.55761719 229.21630859 C119.41777318 230.36326612 118.27745669 231.50975424 117.13670349 232.6558075 C114.68126145 235.1243491 112.22886488 237.59586352 109.77867889 240.06962204 C105.90112674 243.98377513 102.01487676 247.88921277 98.12701416 251.79312134 C87.07276516 262.89565877 76.0302564 274.00982909 64.99658203 285.1328125 C58.90242244 291.27614492 52.80103703 297.41220916 46.69188237 303.54063094 C42.82881737 307.41675208 38.97492739 311.30169868 35.12765551 315.19349265 C32.72671991 317.61796526 30.31738889 320.03395857 27.90565681 322.44768715 C26.79279916 323.56482332 25.68336575 324.68538327 24.57773399 325.8096714 C15.26641504 335.27191501 7.34291889 340.82200924 -6.375 341.3125 C-16.88330477 340.00363642 -24.7046435 335.48854377 -31.375 327.3125 C-36.46170607 319.20747738 -37.26783119 310.36626762 -35.3125 301.125 C-32.81832471 290.57271993 -23.4542318 283.11332332 -16.04541016 275.75585938 C-14.90125253 274.6122668 -13.75753692 273.46823186 -12.61422729 272.3237915 C-9.52823269 269.23722604 -6.43613656 266.15684076 -3.34286165 263.07757378 C-0.10415647 259.85142073 3.12883829 256.61955521 6.36245728 253.38830566 C12.47812957 247.27883501 18.5988795 241.17447801 24.72149527 235.07196665 C31.69523777 228.12062422 38.66326246 221.16356221 45.63082576 214.20602703 C59.95588875 199.9018362 74.28807461 185.60480061 88.625 171.3125 C87.07329489 167.60154965 84.81043742 165.26097849 81.96963501 162.44354248 C81.4929728 161.96799368 81.01631058 161.49244488 80.52520406 161.00248551 C78.92855522 159.41190331 77.32488381 157.82859512 75.72119141 156.24511719 C74.57423388 155.10527318 73.42774576 153.96495669 72.2816925 152.82420349 C69.8131509 150.36876145 67.34163648 147.91636488 64.86787796 145.46617889 C60.95372487 141.58862674 57.04828723 137.70237676 53.14437866 133.81451416 C42.04184123 122.76026516 30.92767091 111.7177564 19.8046875 100.68408203 C13.66135508 94.58992244 7.52529084 88.48853703 1.39686906 82.37938237 C-2.47925208 78.51631737 -6.36419868 74.66242739 -10.25599265 70.81515551 C-12.68046526 68.41421991 -15.09645857 66.00488889 -17.51018715 63.59315681 C-18.62732332 62.48029916 -19.74788327 61.37086575 -20.8721714 60.26523399 C-29.68499087 51.59298073 -36.10675409 43.47603966 -36.4453125 30.6484375 C-35.96509562 20.6203792 -31.92035432 12.8340272 -24.62109375 6.00390625 C-17.43701472 0.59398239 -8.81027969 -1.33327477 0 0 Z " fill="#000000" transform="translate(121.375,85.6875)"/>
</svg>
